<?xml version="1.0" standalone="no"?>
<!DOCTYPE svg PUBLIC "-//W3C//DTD SVG 20010904//EN"
 "http://www.w3.org/TR/2001/REC-SVG-20010904/DTD/svg10.dtd">
<svg version="1.0" xmlns="http://www.w3.org/2000/svg"
 width="1017.000000pt" height="1017.000000pt" viewBox="0 0 1017.000000 1017.000000"
 preserveAspectRatio="xMidYMid meet">
<metadata>
Created by potrace 1.14, written by Peter Selinger 2001-2017
</metadata>
<g transform="translate(0.000000,1017.000000) scale(0.100000,-0.100000)"
fill="#000000" stroke="none">
<path d="M491 6919 c-105 -32 -191 -130 -260 -296 -93 -225 -103 -446 -27
-563 105 -160 372 -261 781 -296 33 -3 74 -7 90 -10 55 -9 499 -12 570 -4 133
16 160 20 185 25 14 3 39 7 55 9 108 15 393 89 565 147 240 80 398 159 478
237 64 62 85 103 88 173 2 48 -2 64 -25 100 -32 52 -87 90 -155 109 -48 13
-246 17 -311 6 -17 -3 -66 -10 -110 -16 -44 -6 -91 -12 -105 -15 -20 -3 -231
-35 -330 -50 -14 -2 -50 -6 -80 -9 -30 -4 -77 -10 -105 -14 -69 -11 -267 -7
-343 7 -201 38 -385 132 -543 279 -122 114 -132 121 -196 153 -69 35 -161 46
-222 28z"/>
<path d="M9867 5864 c-2 -2 -23 -6 -48 -8 -24 -3 -64 -8 -89 -10 -25 -3 -67
-8 -95 -12 -27 -3 -63 -8 -79 -10 -16 -3 -50 -7 -75 -10 -65 -7 -109 -12 -161
-19 -25 -3 -65 -8 -90 -11 -25 -3 -58 -7 -75 -9 -53 -7 -129 -16 -170 -20 -22
-3 -56 -7 -75 -10 -19 -3 -54 -7 -77 -8 -24 0 -43 -4 -43 -7 0 -3 -26 -7 -58
-9 -65 -4 -107 -8 -107 -11 0 -1 -16 -3 -35 -5 -19 -2 -55 -5 -80 -8 -25 -4
-63 -8 -85 -11 -22 -3 -62 -8 -90 -11 -27 -4 -61 -8 -75 -10 -41 -5 -153 -18
-180 -21 -14 -1 -25 -3 -25 -4 0 -1 -11 -3 -25 -4 -14 -1 -59 -6 -100 -11 -41
-5 -85 -9 -97 -9 -13 0 -23 -2 -23 -5 0 -3 -15 -7 -33 -7 -32 -1 -132 -12
-132 -14 0 -1 -16 -3 -35 -5 -19 -2 -57 -7 -85 -10 -71 -9 -160 -20 -255 -31
-63 -7 -105 -12 -105 -14 0 -2 -91 -10 -137 -13 -16 -1 -28 -4 -28 -7 0 -3
-19 -6 -43 -6 -23 -1 -58 -5 -77 -8 -19 -3 -62 -8 -95 -11 -33 -3 -71 -7 -85
-10 -14 -3 -50 -8 -80 -11 -30 -4 -66 -8 -80 -10 -14 -1 -47 -5 -75 -8 -27 -4
-66 -8 -85 -11 -32 -5 -37 -2 -53 28 -33 61 -96 81 -141 44 -15 -12 -37 -22
-49 -23 -12 -1 -42 -4 -67 -7 -25 -3 -72 -9 -105 -12 -33 -4 -73 -9 -90 -11
-32 -6 -97 -13 -160 -19 -22 -2 -53 -6 -70 -9 -16 -3 -52 -8 -80 -11 -27 -3
-68 -8 -90 -11 -22 -2 -56 -7 -75 -9 -19 -2 -60 -8 -90 -11 -30 -4 -67 -8 -82
-8 -16 -1 -28 -3 -28 -6 0 -3 -15 -5 -33 -6 -29 -1 -67 -5 -177 -19 -46 -6
-109 -14 -167 -20 -27 -3 -64 -8 -83 -11 -46 -6 -104 -13 -160 -19 -25 -2 -67
-7 -95 -11 -27 -4 -62 -8 -77 -8 -16 -1 -28 -3 -28 -6 0 -3 -15 -6 -32 -6 -34
-1 -111 -9 -183 -20 -62 -8 -85 -11 -155 -19 -36 -4 -78 -10 -95 -12 -16 -2
-46 -5 -65 -7 -19 -2 -35 -5 -35 -5 0 -1 -22 -4 -50 -6 -27 -3 -68 -8 -90 -11
-22 -3 -58 -8 -80 -9 -22 -2 -40 -4 -40 -5 0 -1 -13 -3 -30 -5 -16 -1 -51 -6
-77 -9 -27 -3 -68 -8 -92 -11 -91 -11 -132 -16 -156 -19 -14 -2 -50 -7 -80
-10 -30 -4 -73 -9 -95 -12 -22 -4 -58 -8 -80 -9 -22 -2 -40 -4 -40 -5 0 -1
-18 -3 -40 -5 -21 -3 -55 -7 -75 -10 -19 -3 -57 -8 -85 -10 -27 -3 -61 -7 -75
-10 -23 -5 -85 -12 -180 -20 -19 -2 -35 -4 -35 -5 0 -1 -13 -3 -30 -5 -16 -2
-52 -6 -80 -10 -27 -3 -63 -7 -80 -8 -16 -1 -33 -6 -37 -12 -5 -6 -8 -6 -8 2
0 9 -8 9 -28 3 -25 -8 -95 -17 -187 -25 -22 -2 -40 -4 -40 -5 0 -2 -50 -8
-220 -26 -22 -2 -51 -6 -65 -9 -14 -2 -47 -7 -75 -10 -27 -3 -64 -8 -81 -10
-17 -2 -57 -7 -90 -10 -32 -4 -72 -9 -89 -11 -36 -6 -109 -15 -150 -19 -16 -1
-30 -3 -30 -4 0 -1 -25 -4 -55 -6 -30 -3 -71 -7 -90 -10 -38 -7 -97 -15 -145
-20 -16 -1 -30 -3 -30 -4 0 -1 -25 -4 -55 -6 -30 -3 -66 -7 -80 -10 -14 -3
-50 -8 -80 -11 -30 -2 -68 -6 -85 -8 -35 -5 -102 -13 -165 -21 -25 -4 -58 -8
-75 -10 -184 -21 -206 -22 -243 -10 l-23 7 1 -258 c1 -224 4 -268 21 -329 11
-38 21 -79 23 -90 2 -11 10 -40 17 -65 16 -56 14 -51 23 -75 97 -253 304 -475
547 -588 89 -42 159 -69 159 -62 0 3 8 1 18 -4 9 -5 35 -12 57 -16 22 -4 54
-9 70 -12 62 -12 209 -7 345 12 19 3 58 7 85 11 28 3 66 8 85 11 19 2 46 5 60
7 34 3 137 16 185 22 46 6 66 9 155 18 36 4 79 10 95 13 17 2 50 6 74 9 24 2
60 6 80 9 20 2 144 18 276 34 132 17 260 33 285 36 25 3 61 7 80 9 42 5 118
14 180 22 25 3 59 7 75 8 27 3 91 11 170 22 17 2 53 7 80 10 90 10 100 12 140
18 22 3 63 8 90 11 28 3 68 8 90 10 22 3 63 8 90 11 28 3 61 7 75 9 47 7 95
14 155 20 33 3 71 8 85 10 14 2 50 7 80 10 56 6 105 12 171 21 20 2 56 6 80 9
24 2 53 6 64 8 11 3 51 8 89 12 38 4 79 8 90 10 24 4 82 11 171 21 33 3 67 8
75 9 9 2 43 6 75 10 33 4 71 8 84 11 14 2 52 6 85 9 34 3 68 8 76 10 8 2 44 7
80 11 100 10 112 11 155 18 22 3 65 8 95 11 69 7 169 30 215 49 19 8 35 13 35
11 0 -5 173 85 180 94 3 3 32 26 65 51 206 153 346 375 400 635 4 17 9 75 12
130 3 55 7 102 9 104 5 6 24 9 89 16 28 3 68 8 90 11 22 4 51 7 65 9 75 8 157
18 174 21 10 2 44 6 75 9 31 3 72 8 91 11 19 3 53 8 75 10 60 6 105 11 150 18
22 3 60 8 85 10 25 3 59 7 75 10 17 2 55 7 85 11 55 6 81 9 175 21 28 4 61 8
75 9 14 1 48 5 75 9 28 3 70 8 95 11 112 13 203 24 240 30 14 2 50 6 80 9 64
7 123 15 159 21 14 2 54 7 89 10 35 4 71 8 80 10 9 1 49 6 87 10 39 4 77 9 87
10 26 5 106 15 242 31 22 2 55 6 71 8 17 3 59 8 95 11 35 4 73 9 85 11 11 2
42 6 70 9 27 3 66 7 86 10 20 3 54 7 75 10 55 6 122 14 169 21 22 3 58 8 80
10 22 2 56 6 75 8 19 3 55 7 80 10 149 15 237 32 246 47 3 5 10 7 15 4 5 -4 9
-1 9 6 0 7 3 9 7 5 9 -8 92 79 103 109 5 13 1 78 -10 166 -18 140 -19 145 -50
170 -53 45 -114 70 -173 74 -31 1 -58 1 -60 -1z"/>
</g>
</svg>
